<svg width="200" height="50" viewBox="0 0 200 50" fill="none" xmlns="http://www.w3.org/2000/svg">
<rect width="200" height="50" fill="#1E222E"/>
<g clip-path="url(#clip0_13_88)">
<path d="M37.5394 40.5407H33.716L30.4178 26.6771H36.0873C36.4886 26.6771 36.817 26.3488 36.817 25.9474C36.817 25.7066 36.693 25.4804 36.4886 25.3418L32.1107 22.4232C31.9939 22.3429 31.848 22.2991 31.7093 22.2991H30.25V16.4619H35.3649C35.7663 16.4619 36.0946 16.1335 36.0946 15.7322C36.0946 15.4914 35.9706 15.2579 35.7663 15.1266L31.3883 12.2079C31.2715 12.1277 31.1256 12.0839 30.9797 12.0839H29.192L26.1274 7.31193C25.8574 6.89602 25.1643 6.89602 24.9016 7.31193L21.8151 12.0839H20.0275C19.8816 12.0839 19.7429 12.1277 19.6262 12.2079L15.2482 15.1266C14.9125 15.3528 14.825 15.8052 15.0439 16.1409C15.1825 16.3452 15.4087 16.4692 15.6495 16.4692H20.7571V22.3065H19.2978C19.1519 22.3065 19.0132 22.3502 18.8892 22.4305L14.5112 25.3492C14.1756 25.5754 14.088 26.0277 14.3069 26.3634C14.4456 26.5677 14.6717 26.6918 14.9125 26.6918H20.5382L17.2402 40.5553H13.4824C13.1176 40.5553 12.7893 40.818 12.7382 41.1755C12.6725 41.6133 13.0227 42 13.4605 42H37.5175C37.8823 42 38.2106 41.7373 38.2617 41.3798C38.3274 40.9274 37.9772 40.5407 37.5394 40.5407ZM31.6291 38.0379L26.4193 31.201L29.1482 27.6256L31.6291 38.0379ZM27.6233 22.2991H23.3547L25.4926 20.3583L27.6233 22.2991ZM26.5798 19.3587L28.7834 17.3667V21.3652L26.5798 19.3587ZM27.4116 25.2178H23.5371L24.7484 23.7585H26.2442L27.4116 25.2178ZM22.2165 21.3506V17.374L24.4055 19.366L22.2165 21.3506ZM28.0318 26.6771L25.4999 30.0117L22.9534 26.6771H28.0318ZM31.4831 23.7585L33.6721 25.2178H29.2796L28.1121 23.7585H31.4831ZM30.7535 13.5432L32.9425 15.0025H29.0899L27.6306 13.5432H30.7535ZM25.4999 9.0558L27.4408 12.0839H23.5518L25.4999 9.0558ZM27.0249 15.0026H23.9822L25.4415 13.5433H25.5655L27.0249 15.0026ZM27.6233 16.4619L25.4926 18.3882L23.3766 16.4619H27.6233ZM18.0574 15.0026L20.2464 13.5433H23.3693L21.91 15.0026H18.0574ZM17.3277 25.2178L19.5167 23.7585H22.8513L21.64 25.2178H17.3277ZM21.8225 27.5819L24.5806 31.2011L19.3124 38.1109L21.8225 27.5819ZM19.3124 40.5407L25.4999 32.4196L31.6874 40.5407H19.3124Z" fill="white"/>
</g>
<path d="M64.16 33V13.968L72.2 13.848C73.688 13.816 74.808 14.152 75.56 14.856C76.312 15.544 76.688 16.568 76.688 17.928V21.816C76.688 23.096 76.312 24.112 75.56 24.864C74.808 25.6 73.688 25.968 72.2 25.968H67.184V33H64.16ZM73.208 16.488H67.184V23.352H73.208C73.464 23.352 73.592 23.224 73.592 22.968V16.872C73.592 16.616 73.464 16.488 73.208 16.488ZM78.8596 21.744C78.8596 20.416 79.1796 19.48 79.8196 18.936C80.4596 18.376 81.5076 18.096 82.9636 18.096H85.5796C87.0516 18.096 88.1076 18.376 88.7476 18.936C89.3876 19.48 89.7076 20.416 89.7076 21.744V29.568C89.7076 30.896 89.3876 31.84 88.7476 32.4C88.1076 32.944 87.0516 33.216 85.5796 33.216H82.9636C81.5076 33.216 80.4596 32.944 79.8196 32.4C79.1796 31.84 78.8596 30.896 78.8596 29.568V21.744ZM82.1236 20.52C81.8996 20.52 81.7876 20.632 81.7876 20.856V30.456C81.7876 30.68 81.8996 30.792 82.1236 30.792H86.4676C86.6756 30.792 86.7796 30.68 86.7796 30.456V20.856C86.7796 20.632 86.6756 20.52 86.4676 20.52H82.1236ZM96.1025 33.216C94.8865 33.216 93.9985 33 93.4385 32.568C92.8945 32.136 92.6225 31.312 92.6225 30.096V18.312H95.5265V30.528C95.5265 30.752 95.6305 30.864 95.8385 30.864H99.6785C99.8865 30.864 99.9905 30.752 99.9905 30.528V18.312H102.847V30.528C102.847 30.752 102.951 30.864 103.159 30.864H107.023C107.231 30.864 107.335 30.752 107.335 30.528L107.311 18.312H110.215L110.239 29.976C110.239 31.192 109.959 32.04 109.399 32.52C108.855 32.984 107.975 33.216 106.759 33.216H104.551C102.839 33.216 101.791 32.624 101.407 31.44C101.023 32.624 99.9825 33.216 98.2865 33.216H96.1025ZM117.301 33.168C115.845 33.168 114.789 32.888 114.133 32.328C113.493 31.768 113.173 30.824 113.173 29.496V21.6C113.173 20.272 113.453 19.36 114.013 18.864C114.573 18.352 115.533 18.096 116.893 18.096H119.845C121.221 18.096 122.197 18.352 122.773 18.864C123.365 19.36 123.661 20.272 123.661 21.6V27.336H116.101V30.408C116.101 30.616 116.205 30.72 116.413 30.72H123.277V33.168H117.301ZM116.413 20.448C116.205 20.448 116.101 20.56 116.101 20.784V25.224H120.757V20.784C120.757 20.56 120.653 20.448 120.445 20.448H116.413ZM133.332 18.096V20.448H129.708C129.484 20.448 129.372 20.56 129.372 20.784L129.396 33H126.516L126.468 18.312H129.06L129.276 19.8C129.596 18.664 130.484 18.096 131.94 18.096H133.332ZM145.489 33H135.385V13.968H138.409V30.384H145.489V33ZM147.521 15.696V13.008H150.449V15.696H147.521ZM147.521 33V18.312H150.449V33H147.521ZM161.16 18.096C162.36 18.096 163.24 18.336 163.8 18.816C164.36 19.296 164.64 20.144 164.64 21.36V33H161.736V20.784C161.736 20.56 161.632 20.448 161.424 20.448H157.224C157 20.448 156.888 20.56 156.888 20.784L156.912 33H154.032L153.984 18.312H156.576L156.792 19.8C157.112 18.664 158 18.096 159.456 18.096H161.16ZM171.512 33.168C170.056 33.168 169 32.888 168.344 32.328C167.704 31.768 167.384 30.824 167.384 29.496V21.6C167.384 20.272 167.664 19.36 168.224 18.864C168.784 18.352 169.744 18.096 171.104 18.096H174.056C175.432 18.096 176.408 18.352 176.984 18.864C177.576 19.36 177.872 20.272 177.872 21.6V27.336H170.312V30.408C170.312 30.616 170.416 30.72 170.624 30.72H177.488V33.168H171.512ZM170.624 20.448C170.416 20.448 170.312 20.56 170.312 20.784V25.224H174.968V20.784C174.968 20.56 174.864 20.448 174.656 20.448H170.624Z" fill="white"/>
<defs>
<clipPath id="clip0_13_88">
<rect width="35" height="35" fill="white" transform="translate(8 7)"/>
</clipPath>
</defs>
</svg>
